# xmcd
#
# Track frame offsets:
#	150
#	16894
#	28787
#	46904
#	59200
#	71971
#	87294
#	95110
#	101588
#	117797
#	133242
#	146591
#	159989
#	173774
#	181133
#	187168
#	201980
#	217940
#	230952
#	244340
#	256842
#	262908
#	270465
#	280024
#	292264
#	306226
#	313054
#
# Disc length: 4269 seconds
#
# Revision: 0
# Processed by: cddbd v1.5.2PL0 Copyright (c) Steve Scherf et al.
# Submitted via: EasyCDDAExtractor 2010.6.0.0
#
DISCID=a310ab1b
DTITLE=보들북 - 전래동화-호랑이
DYEAR=1900
DGENRE=
TTITLE0=해님 달님
TTITLE1=금도끼 은도끼
TTITLE2=팥죽 할머니와 호랑이
TTITLE3=방귀 시합
TTITLE4=호랑이와 곶감감
TTITLE5=콩쥐 팥쥐
TTITLE6=임금님 귀는 당나귀 귀
TTITLE7=까치의 재판
TTITLE8=흥부 놀부
TTITLE9=개와 고양이
TTITLE10=토끼의 재판
TTITLE11=빨간 부채 파란 부채
TTITLE12=토끼와 자라
TTITLE13=청개구리 이야기
TTITLE14=의좋은 형제
TTITLE15=요술 맷돌
TTITLE16=효녀 심청
TTITLE17=소가 된 게으름뱅이
TTITLE18=토끼와 호랑이
TTITLE19=혹부리 할아버지
TTITLE20=자린고비 이야기
TTITLE21=떡시루 잡기
TTITLE22=견우와 직녀
TTITLE23=은혜 갚은 호랑이
TTITLE24=선녀와 나무꾼
TTITLE25=삼년고개
TTITLE26=송아지와 바꾼 무
EXTD=
EXTT0=
EXTT1=
EXTT2=
EXTT3=
EXTT4=
EXTT5=
EXTT6=
EXTT7=
EXTT8=
EXTT9=
EXTT10=
EXTT11=
EXTT12=
EXTT13=
EXTT14=
EXTT15=
EXTT16=
EXTT17=
EXTT18=
EXTT19=
EXTT20=
EXTT21=
EXTT22=
EXTT23=
EXTT24=
EXTT25=
EXTT26=
PLAYORDER=
